PathFileType	4	(X/Y/Z)	C:\Users\xlb\Desktop\20210112\20210112\bx_n_10_502.trc
DataRate	CameraRate	NumFrames	NumMarkers	Units	OrigDataRate	OrigDataStartFrame	OrigNumFrames
50.00	50.00	       4	43	mm	50.00	414	       473
Frame#	Time	Top.Head			R.Acromium			L.Acromium			Sternum			R.ASIS			L.ASIS			V.Sacral			R.Thigh.Upper			R.Thigh.Front			R.Thigh.Rear			R.Knee.Lat			R.Knee.Med			R.Shank.Upper			R.Shank.Front			R.Shank.Rear			R.Ankle.Lat			R.Midfoot.Lat			R.Toe.Lat			R.Toe.Tip			R.Toe.Med			R.Ankle.Med			R.Midfoot.Sup			R.Heel			L.Thigh.Upper			L.Thigh.Front			L.Thigh.Rear			L.Knee.Lat			L.Knee.Med			L.Shank.Upper			L.Shank.Front			L.Shank.Rear			L.Ankle.Lat			L.Midfoot.Lat			L.Toe.Lat			L.Toe.Tip			L.Toe.Med			L.Ankle.Med			L.Midfoot.Sup			L.Heel			origin1 front left			origin2 front right			origin 3 back right			origin 4 back leftt			
		X1	Y1	Z1	X2	Y2	Z2	X3	Y3	Z3	X4	Y4	Z4	X5	Y5	Z5	X6	Y6	Z6	X7	Y7	Z7	X8	Y8	Z8	X9	Y9	Z9	X10	Y10	Z10	X11	Y11	Z11	X12	Y12	Z12	X13	Y13	Z13	X14	Y14	Z14	X15	Y15	Z15	X16	Y16	Z16	X17	Y17	Z17	X18	Y18	Z18	X19	Y19	Z19	X20	Y20	Z20	X21	Y21	Z21	X22	Y22	Z22	X23	Y23	Z23	X24	Y24	Z24	X25	Y25	Z25	X26	Y26	Z26	X27	Y27	Z27	X28	Y28	Z28	X29	Y29	Z29	X30	Y30	Z30	X31	Y31	Z31	X32	Y32	Z32	X33	Y33	Z33	X34	Y34	Z34	X35	Y35	Z35	X36	Y36	Z36	X37	Y37	Z37	X38	Y38	Z38	X39	Y39	Z39	X40	Y40	Z40	X41	Y41	Z41	X42	Y42	Z42	X43	Y43	Z43	

414	8.260	-675.51331	89.04197	1853.21399	-684.22375	-91.58519	1537.01721	-700.98035	269.66904	1545.88599	-595.13354	94.31728	1362.80188	-601.37317	-13.63573	1056.40369	-618.78369	232.33322	1070.98987	-807.51971	80.32803	1055.95288	-661.88147	-82.08011	875.11847	-590.29315	-9.48150	808.49866	-682.69440	-69.08590	760.44025	-703.61517	-43.37830	617.78827	-691.04846	66.42941	575.94214	-710.63721	-40.32404	569.40771	-662.77039	9.67348	520.13965	-755.41937	-52.29025	488.72174	-757.26025	-23.35325	206.59769	-648.80933	-70.23008	159.49489	-607.03705	-78.11168	155.63992	-550.67395	-31.06168	163.88699	-597.33191	23.00074	170.95612	-716.02850	66.08882	218.47159	-672.09125	51.26133	162.81355	-791.82550	36.58421	173.26939	-700.68896	278.42337	878.70184	-595.66522	211.16423	819.25830	-707.36688	264.38235	747.70288	-735.83374	246.54836	645.50232	-693.55786	142.08914	580.09326	-734.64117	245.01514	579.36920	-679.67456	203.81137	538.58447	-772.82709	255.70253	504.21506	-767.78961	229.08507	205.44987	-659.56793	297.30484	157.70203	-623.56641	306.62808	158.68634	-557.15961	257.37326	164.45358	-592.13806	220.56668	174.22339	-711.00061	155.56230	218.09433	-674.63080	174.41969	159.76218	-795.45227	179.59642	183.43498	-528.07880	304.32684	146.45946	-517.75702	-72.90485	142.93810	-875.97229	-78.89996	141.29602	-882.56470	296.07916	144.60001	
415	8.280	-679.96155	90.04997	1853.12646	-687.92651	-91.34019	1537.31970	-704.90552	269.76590	1545.49561	-596.51031	94.43337	1363.31067	-598.98706	-13.68299	1056.47876	-616.96423	232.63501	1071.03333	-805.57648	80.09607	1055.36279	-659.72589	-82.15593	874.83960	-588.42908	-9.28142	808.36859	-680.66571	-69.28975	760.41644	-702.17841	-43.35363	617.69769	-689.79132	66.42577	575.88019	-709.44739	-40.35706	569.37439	-661.71851	9.59613	519.81525	-754.45081	-52.25871	488.73734	-757.23834	-23.40754	206.60880	-648.84583	-70.25688	159.49420	-607.03705	-78.11941	155.64447	-550.74762	-31.16141	163.95703	-597.35608	23.00764	170.91356	-715.90979	66.08956	218.51437	-672.12488	51.23827	162.83942	-791.78595	36.52365	173.30678	-698.85583	278.52820	878.56604	-593.99756	210.79308	819.16223	-705.62164	264.29971	747.68701	-734.44214	246.37717	645.61865	-692.18304	141.98216	580.35291	-733.29828	244.95245	579.48248	-678.44202	203.65085	538.57581	-771.71985	255.57404	504.46014	-767.64984	228.93738	205.51407	-659.54480	297.31454	157.86632	-623.56671	306.62848	158.68556	-557.06604	257.33105	164.35085	-592.12073	220.47688	174.17836	-710.91101	155.36903	218.10464	-674.58112	174.38643	159.70213	-795.39923	179.50847	183.51746	-528.05414	304.28644	146.48189	-517.75525	-72.94242	142.94800	-875.99640	-78.92728	141.33398	-882.55164	296.08401	144.62222	
416	8.300	-684.14960	90.92768	1852.92725	-691.41742	-91.12566	1537.53284	-708.56012	269.88321	1545.01050	-597.83838	94.55436	1363.76074	-596.65381	-13.73432	1056.50403	-615.20825	232.99838	1071.05847	-803.65753	79.92520	1054.83850	-657.63049	-82.18886	874.58600	-586.64673	-9.14088	808.21582	-678.83344	-69.33244	760.32324	-700.81226	-43.31805	617.62073	-688.57050	66.41309	575.80243	-708.32111	-40.34222	569.29999	-660.74579	9.51003	519.50299	-753.54041	-52.19327	488.75079	-757.22803	-23.44000	206.60631	-648.86456	-70.29205	159.50052	-607.02704	-78.11330	155.64784	-550.79834	-31.26297	164.04166	-597.41010	23.05968	170.81125	-715.80939	66.05791	218.55431	-672.18951	51.22879	162.85164	-791.73102	36.47424	173.32120	-697.11639	278.62988	878.43909	-592.29242	210.52681	819.14276	-703.90997	264.25235	747.73621	-733.00842	246.26756	645.71442	-690.71680	141.93739	580.53546	-731.94495	244.84883	579.54810	-677.19397	203.53651	538.53534	-770.61298	255.42090	504.63773	-767.51801	228.77963	205.59795	-659.53326	297.32367	158.05043	-623.56665	306.62909	158.68538	-556.97205	257.30032	164.25067	-592.08063	220.36678	174.13571	-710.83691	155.19556	218.08173	-674.53033	174.36839	159.63019	-795.33154	179.37134	183.66289	-528.03503	304.23627	146.49112	-517.76721	-72.97881	142.96135	-875.98096	-78.89268	141.36063	-882.52838	296.06168	144.62373	
417	8.320	-688.01416	91.64034	1852.61609	-694.74255	-90.91096	1537.69250	-711.94897	270.03812	1544.43701	-599.11902	94.65398	1364.16687	-594.41730	-13.75608	1056.49658	-613.53101	233.27892	1071.03943	-801.78558	79.80132	1054.37512	-655.61346	-82.18757	874.39008	-584.97961	-9.05669	808.00031	-677.22638	-69.23494	760.16150	-699.53265	-43.28317	617.59106	-687.41302	66.39019	575.75763	-707.27777	-40.24614	569.16254	-659.83441	9.46898	519.24988	-752.72217	-52.12962	488.81213	-757.22034	-23.41670	206.58725	-648.86420	-70.32104	159.49231	-607.01440	-78.09978	155.64841	-550.82275	-31.31704	164.10663	-597.47662	23.14967	170.69101	-715.72028	66.00455	218.58585	-672.25116	51.23065	162.83926	-791.66376	36.45313	173.32927	-695.43787	278.82309	878.36493	-590.59503	210.44817	819.12823	-702.32788	264.21713	747.81744	-731.64557	246.21027	645.77130	-689.31976	141.93982	580.61005	-730.66058	244.70306	579.56311	-675.99463	203.46846	538.44464	-769.57837	255.24683	504.72394	-767.41876	228.65315	205.67947	-659.52301	297.29926	158.19946	-623.56647	306.62979	158.68536	-556.87744	257.26593	164.16745	-592.02545	220.24940	174.10040	-710.80121	155.05930	217.97888	-674.49445	174.34831	159.53690	-795.25519	179.21567	183.83990	-528.03491	304.21609	146.47954	-517.77924	-72.99897	142.97098	-875.94348	-78.83340	141.35915	-882.52466	296.04086	144.61125	
